<svg version="1.2" xmlns="http://www.w3.org/2000/svg" viewBox="0 0 15 15" width="15" height="15">
	<title>copyright-symbol-svgrepo-com-svg</title>
	<style>
		.s0 { fill: #fff } 
	</style>
	<g id="Layer">
		<path id="Layer" fill-rule="evenodd" class="s0" d="m15 7.5c0 4.1-3.4 7.5-7.5 7.5c-4.1 0-7.5-3.4-7.5-7.5c0-4.1 3.4-7.5 7.5-7.5c4.1 0 7.5 3.4 7.5 7.5zm-1.7 0c0-3.2-2.6-5.8-5.8-5.8c-3.2 0-5.8 2.6-5.8 5.8c0 3.2 2.6 5.8 5.8 5.8c3.2 0 5.8-2.6 5.8-5.8z" />
		<path id="Layer" class="s0" d="m10 8.7h1.8l-0.1 0.3c-0.3 0.9-0.9 1.6-1.6 2.1c-0.7 0.5-1.6 0.7-2.5 0.7c-2.4 0-4.3-1.9-4.3-4.3c0-2.4 1.9-4.4 4.3-4.4c0.9 0 1.8 0.3 2.5 0.8c0.7 0.5 1.3 1.2 1.6 2l0.1 0.3h-1.8l-0.1-0.1c-0.4-0.8-1.3-1.3-2.3-1.3c-1.5 0-2.7 1.2-2.7 2.7c0 1.5 1.2 2.7 2.7 2.7c1 0 1.9-0.5 2.3-1.4z" />
	</g>
	<g id="Layer">
	</g>
	<g id="Layer">
	</g>
	<g id="Layer">
	</g>
	<g id="Layer">
	</g>
	<g id="Layer">
	</g>
	<g id="Layer">
	</g>
	<g id="Layer">
	</g>
	<g id="Layer">
	</g>
	<g id="Layer">
	</g>
	<g id="Layer">
	</g>
	<g id="Layer">
	</g>
	<g id="Layer">
	</g>
	<g id="Layer">
	</g>
	<g id="Layer">
	</g>
	<g id="Layer">
	</g>
</svg>
