<svg version="1.2" xmlns="http://www.w3.org/2000/svg" viewBox="0 0 32 32" width="32" height="32">
	<title>icons8-volvo-svg</title>
	<style>
		.s0 { fill: #000000 } 
	</style>
	<path id="Layer" fill-rule="evenodd" class="s0" d="m29.4 1.9v6.4l-1.3-1.3-2.3 2.3c3 4.1 3.2 9.7 0.5 14.1-3.7 6-11.6 8-17.7 4.2-6-3.7-7.8-11.5-4.2-17.6 3.7-6.1 11.6-8 17.6-4.2l2.4-2.5-1.4-1.4zm-5.1 14.7c0-4.9-4-8.9-8.9-8.9-5 0-9 4-9 8.9 0 5 4 9 9 9 4.9 0 8.9-4 8.9-9zm-1.8-3.2c0 0.1 0 0.2 0.1 0.4q0.1 0.2 0.1 0.3c0.1 0.2 0.1 0.4 0.1 0.5 0 0.1 0.1 0.2 0.1 0.4 0 0.1 0.1 0.2 0.1 0.4 0 0.4 0 0.8 0.1 1.2 0 0.4 0 0.9-0.1 1.3 0 0.1 0 0.2 0 0.3 0 0.2-0.1 0.3-0.1 0.4-0.1 0.2-0.1 0.3-0.1 0.5-0.1 0.1-0.1 0.2-0.1 0.4-0.1 0.1-0.1 0.2-0.2 0.3h-14.3c-0.1-0.1-0.1-0.2-0.1-0.3q-0.1-0.2-0.2-0.4c0-0.2 0-0.3-0.1-0.5 0-0.1-0.1-0.2-0.1-0.4 0-0.1 0-0.2 0-0.3q-0.2-1.3 0-2.5c0-0.2 0-0.3 0-0.4 0-0.2 0.1-0.3 0.1-0.4 0.1-0.2 0.1-0.3 0.1-0.5 0.1-0.1 0.1-0.2 0.2-0.3 0-0.2 0-0.3 0.1-0.4zm-14.2 2.4h0.4l0.9 2.1h1.1l0.7-2.2h0.4v-0.3h-1.3v0.3h0.4l-0.6 1.6-0.5-1.6h0.4v-0.3h-1.9zm3.4 1.1c0 0.5 0.5 1 1 1h0.6c0.6 0 1-0.5 1-1v-0.6c0-0.5-0.4-1-1-1h-0.6c-0.5 0-1 0.5-1 1zm2.7-1.2h0.5v1.8h-0.5v0.4h2.7v-1.2h-0.4c0 0.4-0.2 0.8-0.5 0.8h-0.5v-1.8h0.5v-0.3h-1.8zm2.1 0h0.4l0.9 2.1h1l0.8-2.1h0.4v-0.4h-1.3v0.4h0.4l-0.6 1.5-0.6-1.5h0.4v-0.4h-1.8zm3.4 1.1c0 0.5 0.4 1 1 1h0.5c0.6 0 1-0.5 1-1v-0.6c0-0.5-0.4-1-1-1h-0.5c-0.6 0-1 0.5-1 1zm-6.4-0.3c0 0.5-0.2 0.9-0.5 0.9-0.2 0-0.4-0.4-0.4-0.9 0-0.5 0.2-0.9 0.4-0.9 0.3 0 0.5 0.4 0.5 0.9zm8.1 0c0 0.5-0.2 0.9-0.5 0.9-0.2 0-0.4-0.4-0.4-0.9 0-0.5 0.2-0.9 0.4-0.9 0.3 0 0.5 0.4 0.5 0.9z"/>
</svg>