<svg version="1.2" xmlns="http://www.w3.org/2000/svg" viewBox="0 0 282 45" width="282" height="45">
	<title>Volvo-Logo</title>
	<style>
		.s0 { fill: #0d3896 } 
	</style>
	<path id="Layer" fill-rule="evenodd" class="s0" d="m32.5 12.8v-3.9h28.2l0.1 3.9h-7.1l9.7 16.9l9-16.9h-5.2v-3.9h19.4v3.8l-6.5 0.1l-12.7 23.9h-15.7l-12.7-23.9zm125.4 0v-3.9h28.2v3.9h-7.1l9.8 16.9l8.9-16.9h-5.1v-3.9h19.4v3.8l-6.5 0.1l-12.7 23.9h-15.7l-12.7-23.9zm-6.3-3.9v3.9h-6.4v19.5c0 0 4.5 0 6.8 0c2.5 0 8.4-1.7 8.7-8.6h4.2v13h-32.4l-6.9-0.1v-4.3h6.9l-0.1-19.5h-6.5v-3.9c0 0 25.7 0 25.7 0zm-27.5 13.8c0 8.2-9 14.7-20 14.7c-11.1 0-20-6.5-20-14.7c0-8.1 8.9-14.6 20-14.6c11 0 20 6.5 20 14.6zm-13.3 0c0-5.8-3.1-10.4-7-10.4c-3.9 0-7.1 4.6-7.1 10.4c0 5.8 3.2 10.4 7.1 10.4c3.9 0 7-4.6 7-10.4zm138.7-0.2c0 8.2-9 14.9-20 14.9c-11.1 0-20-6.7-20-14.9c0-8.2 8.9-14.9 20-14.9c11 0 20 6.7 20 14.9zm-13.3-0.1c0-5.8-3.1-10.5-7-10.5c-3.9 0-7.1 4.7-7.1 10.5c0 5.9 3.2 10.6 7.1 10.6c3.9 0 7-4.7 7-10.6z" />
</svg>