<svg version="1.2" xmlns="http://www.w3.org/2000/svg" viewBox="0 0 70 70" width="70" height="70"><style>.s0{opacity: .2;fill:#fe3e57}.s1{opacity: .6;fill:#fe3e57}.s2{fill:#fe3e57}.s3{fill:#ffffff}</style><path class="s0" d="m35 69.5c-19.1 0-34.5-15.4-34.5-34.5c0-19.1 15.4-34.5 34.5-34.5c19.1 0 34.5 15.4 34.5 34.5c0 19.1-15.4 34.5-34.5 34.5z" /><path class="s1" d="m35 64.2c-16.1 0-29.2-13.1-29.2-29.2c0-16.1 13.1-29.2 29.2-29.2c16.1 0 29.2 13.1 29.2 29.2c0 16.1-13.1 29.2-29.2 29.2z" /><path class="s2" d="m35 58.9c-13.2 0-23.9-10.7-23.9-23.9c0-13.2 10.7-23.9 23.9-23.9c13.2 0 23.9 10.7 23.9 23.9c0 13.2-10.7 23.9-23.9 23.9z" /><path class="s3" d="m38.6 34c0.4 0.3 0.6 0.6 0.6 1c0 0.4-0.2 0.7-0.6 1l-6.3 4c-0.3 0.2-0.5 0.3-0.8 0.3c-0.4 0-0.7-0.4-0.7-1v-8.6c0-0.6 0.3-1 0.7-1c0.3 0 0.5 0.1 0.8 0.3z" /></svg>